HIERARCHY
ROOT Elbow
{
	OFFSET	0.00	0.00	0.00
	CHANNELS 6 Xposition Yposition Zposition Zrotation Xrotation Yrotation
	JOINT L_Wrist
	{
		OFFSET	 0.208349	 0.000000	 0.000000
		CHANNELS 3 Zrotation Xrotation Yrotation
		JOINT L_index_Proximal
		{
			OFFSET	 0.093499	 0.010637	-0.002084
			CHANNELS 3 Zrotation Xrotation Yrotation
			JOINT L_index_b
			{
				OFFSET	 0.033152	 0.000000	 0.000000
				CHANNELS 3 Zrotation Xrotation Yrotation
				JOINT L_index_c
				{
					OFFSET	 0.018651	 0.000000	 0.000000
					CHANNELS 3 Zrotation Xrotation Yrotation
					End Site
					{
						OFFSET	 0.018651	 0.000000	 0.000000
					}
				}
			}
		}
		JOINT L_middle_Proximal
		{
			OFFSET	 0.090632	-0.006115	-0.003750
			CHANNELS 3 Zrotation Xrotation Yrotation
			JOINT L_middle_b
			{
				OFFSET	 0.037195	 0.000000	 0.000000
				CHANNELS 3 Zrotation Xrotation Yrotation
				JOINT L_middle_c
				{
					OFFSET	 0.021943	 0.000000	 0.000000
					CHANNELS 3 Zrotation Xrotation Yrotation
					End Site
					{
						OFFSET	 0.021943	 0.000000	 0.000000
					}
				}
			}
		}
		JOINT L_pinky_Proximal
		{
			OFFSET	 0.074015	-0.035449	-0.000417
			CHANNELS 3 Zrotation Xrotation Yrotation
			JOINT L_pinky_b
			{
				OFFSET	 0.027285	 0.000000	 0.000000
				CHANNELS 3 Zrotation Xrotation Yrotation
				JOINT L_pinky_c
				{
					OFFSET	 0.015093	 0.000000	 0.000000
					CHANNELS 3 Zrotation Xrotation Yrotation
					End Site
					{
						OFFSET	 0.015093	 0.000000	 0.000000
					}
				}
			}
		}
		JOINT L_ring_Proximal
		{
			OFFSET	 0.082801	-0.021859	-0.003750
			CHANNELS 3 Zrotation Xrotation Yrotation
			JOINT L_ring_b
			{
				OFFSET	 0.034478	 0.000000	 0.000000
				CHANNELS 3 Zrotation Xrotation Yrotation
				JOINT L_ring_c
				{
					OFFSET	 0.021377	 0.000000	 0.000000
					CHANNELS 3 Zrotation Xrotation Yrotation
					End Site
					{
						OFFSET	 0.021377	 0.000000	 0.000000
					}
				}
			}
		}
		JOINT L_thumb_Proximal
		{
			OFFSET	 0.030306	 0.018528	 0.004584
			CHANNELS 3 Zrotation Xrotation Yrotation
			JOINT L_thumb_a
			{
				OFFSET	 0.038520	 0.000000	 0.000000
				CHANNELS 3 Zrotation Xrotation Yrotation
				JOINT L_thumb_b
				{
					OFFSET	 0.026310	 0.000000	 0.000000
					CHANNELS 3 Zrotation Xrotation Yrotation
					End Site
					{
						OFFSET	 0.026310	 0.000000	 0.000000
					}
				}
			}
		}
	}
}
MOTION
Frames:    12
Frame Time: 0.01666667
 1.036977	-0.224691	 0.642184	 99.109940	 37.864460	 16.460490	 1.661380	 5.516340	 33.210330	-2.331607	 1.765430	-74.411290	-3.033512	 2.568349	-80.502680	 0.913995	-0.315867	-38.128060	-12.305790	-6.265620	-71.593830	 0.560692	-0.559630	-89.891400	 2.885547	-1.162960	-43.894700	-37.941160	-11.226490	-72.518250	-4.658441	 4.379311	-86.458330	-1.942557	 0.749490	-42.192960	-19.824130	-10.522690	-75.424420	 5.675084	-6.019860	-93.383100	 6.757878	-2.314058	-37.768910	 72.209530	 47.641050	-48.778690	-0.930398	 0.061478	-7.560680	 2.285953	-0.497986	-24.576150
 1.036744	-0.224577	 0.641813	 99.083820	 37.863190	 16.474810	 1.640939	 5.522286	 33.251030	-2.306041	 1.743223	-74.439820	-2.984682	 2.530864	-80.588960	 0.890440	-0.308535	-38.220680	-12.321240	-6.248838	-71.699970	 0.535963	-0.535188	-89.917020	 2.820267	-1.137048	-43.909010	-37.945270	-11.222630	-72.524090	-4.661361	 4.384801	-86.494000	-1.942239	 0.750025	-42.227130	-19.991100	-10.371680	-75.597570	 5.393690	-5.741325	-93.581980	 6.480740	-2.224330	-37.853550	 72.053020	 47.783440	-48.608940	-0.972815	 0.064792	-7.620714	 2.271999	-0.497168	-24.683820
 1.036632	-0.224567	 0.641650	 99.075940	 37.844060	 16.493790	 1.625693	 5.524721	 33.267740	-2.282956	 1.722865	-74.430060	-2.954251	 2.506645	-80.624860	 0.883883	-0.306407	-38.237560	-12.316950	-6.251380	-71.717490	 0.545621	-0.544789	-89.913150	 2.811537	-1.133545	-43.909640	-37.940550	-11.223060	-72.543910	-4.662765	 4.385901	-86.491290	-1.946917	 0.751865	-42.228140	-20.035920	-10.330280	-75.654700	 5.336039	-5.682130	-93.603880	 6.407831	-2.200485	-37.873230	 72.023880	 47.814670	-48.567740	-0.959787	 0.063886	-7.617721	 2.286753	-0.500036	-24.666410
 1.036640	-0.224516	 0.641433	 99.082550	 37.830920	 16.507700	 1.601092	 5.530765	 33.309100	-2.248898	 1.694283	-74.466000	-2.918910	 2.478626	-80.669850	 0.892009	-0.309554	-38.276650	-12.299970	-6.263570	-71.756990	 0.556094	-0.555112	-89.899070	 2.811654	-1.133752	-43.915250	-37.953880	-11.211260	-72.545960	-4.676866	 4.400347	-86.506650	-1.956391	 0.755767	-42.240200	-20.081930	-10.287330	-75.724520	 5.264800	-5.611153	-93.653630	 6.324927	-2.172914	-37.888410	 71.976140	 47.881500	-48.465230	-0.928709	 0.061865	-7.620349	 2.310559	-0.504778	-24.644120
 1.036769	-0.224448	 0.641375	 99.103980	 37.826270	 16.496840	 1.588045	 5.531685	 33.315370	-2.239566	 1.686276	-74.483060	-2.918952	 2.478613	-80.668600	 0.904806	-0.314092	-38.287080	-12.287810	-6.274292	-71.751680	 0.562399	-0.561319	-89.890180	 2.831127	-1.141609	-43.915100	-37.968910	-11.196480	-72.564590	-4.691774	 4.414653	-86.510120	-1.971304	 0.761517	-42.239530	-20.070020	-10.298180	-75.730620	 5.280641	-5.627965	-93.652890	 6.345139	-2.179271	-37.878890	 71.953460	 47.902320	-48.440110	-0.898892	 0.059673	-7.594526	 2.323744	-0.505484	-24.540960
 1.036976	-0.224536	 0.641380	 99.146850	 37.807920	 16.488790	 1.573488	 5.535203	 33.339490	-2.226672	 1.676977	-74.533870	-2.949456	 2.503747	-80.651150	 0.903687	-0.313920	-38.312090	-12.260200	-6.296857	-71.751970	 0.586618	-0.585229	-89.864010	 2.873392	-1.159137	-43.931550	-37.993440	-11.162120	-72.651670	-4.702279	 4.424622	-86.511280	-1.978997	 0.765017	-42.266510	-20.037840	-10.325540	-75.766230	 5.344273	-5.695866	-93.653750	 6.394600	-2.195238	-37.862050	 71.928630	 47.911850	-48.442700	-0.840287	 0.055465	-7.550924	 2.349086	-0.509250	-24.460310
 1.036944	-0.224630	 0.641344	 99.155650	 37.784970	 16.498060	 1.566228	 5.536706	 33.349770	-2.218365	 1.669421	-74.542210	-2.959261	 2.512308	-80.656620	 0.907553	-0.315325	-38.318610	-12.242460	-6.312365	-71.748260	 0.604061	-0.602506	-89.851890	 2.896795	-1.168676	-43.934900	-37.997610	-11.157770	-72.660940	-4.705864	 4.428910	-86.523250	-1.983049	 0.766972	-42.286030	-20.022080	-10.339750	-75.784960	 5.356908	-5.708196	-93.642460	 6.406971	-2.199099	-37.855760	 71.937160	 47.904120	-48.451300	-0.825144	 0.054386	-7.541306	 2.351032	-0.509797	-24.465650
 1.037069	-0.224709	 0.641310	 99.183720	 37.762050	 16.501270	 1.568097	 5.539833	 33.371280	-2.216211	 1.668205	-74.578290	-2.993049	 2.538922	-80.610400	 0.877192	-0.304717	-38.311530	-12.185820	-6.361254	-71.724100	 0.640263	-0.638242	-89.818990	 2.920508	-1.179055	-43.962120	-37.905800	-11.218910	-72.756350	-4.688794	 4.415024	-86.551420	-2.018240	 0.781106	-42.311940	-19.924330	-10.427030	-75.808940	 5.419536	-5.764587	-93.539880	 6.457921	-2.218106	-37.879360	 71.929830	 47.914630	-48.434240	-0.807121	 0.053091	-7.525224	 2.368993	-0.513426	-24.453450
 1.036935	-0.224725	 0.641375	 99.201030	 37.761990	 16.488880	 1.573188	 5.542684	 33.390800	-2.226822	 1.678497	-74.603980	-3.015121	 2.556726	-80.590000	 0.851994	-0.296012	-38.317550	-12.153020	-6.388614	-71.725600	 0.653864	-0.651783	-89.818390	 2.933058	-1.184732	-43.982830	-37.864310	-11.243700	-72.816680	-4.676801	 4.403791	-86.552150	-2.026057	 0.784542	-42.332260	-19.863130	-10.481340	-75.824120	 5.486826	-5.831082	-93.490200	 6.516017	-2.238335	-37.883090	 71.905620	 47.938650	-48.403800	-0.804621	 0.052854	-7.517341	 2.381788	-0.515387	-24.416140
 1.037039	-0.224775	 0.641484	 99.224670	 37.770750	 16.490560	 1.591674	 5.548403	 33.430000	-2.212693	 1.665673	-74.587660	-3.021335	 2.562336	-80.597600	 0.819275	-0.285153	-38.380700	-12.103460	-6.429065	-71.751050	 0.694413	-0.692059	-89.805100	 2.947772	-1.191194	-43.999920	-37.864050	-11.231510	-72.894640	-4.659864	 4.386648	-86.536620	-2.025343	 0.784770	-42.356370	-19.831500	-10.508650	-75.866060	 5.535271	-5.880207	-93.467290	 6.528379	-2.242616	-37.883530	 71.851360	 47.977140	-48.367520	-0.794184	 0.052152	-7.514076	 2.404154	-0.520753	-24.440650
 1.037202	-0.224733	 0.641601	 99.222620	 37.809000	 16.504090	 1.594984	 5.550391	 33.443660	-2.208304	 1.659965	-74.592470	-3.051131	 2.585913	-80.560650	 0.744877	-0.259322	-38.391180	-12.071390	-6.457474	-71.763800	 0.718208	-0.715623	-89.793580	 2.953429	-1.193968	-44.016230	-37.861800	-11.220920	-72.988460	-4.691873	 4.415756	-86.523300	-2.091241	 0.811304	-42.404500	-19.767570	-10.567100	-75.913180	 5.599742	-5.941852	-93.401410	 6.580208	-2.261235	-37.895610	 71.781520	 48.048270	-48.269030	-0.800185	 0.052754	-7.543184	 2.391854	-0.517882	-24.430810
 1.037134	-0.224925	 0.641737	 99.161220	 37.860130	 16.592240	 1.649850	 5.554471	 33.471580	-2.233123	 1.683444	-74.582240	-3.122152	 2.643624	-80.507510	 0.663820	-0.231423	-38.439310	-12.016990	-6.500663	-71.785610	 0.725564	-0.722854	-89.786540	 2.950884	-1.194682	-44.074170	-37.706390	-11.307390	-73.253960	-4.666232	 4.382684	-86.406750	-2.180115	 0.845833	-42.406010	-19.589500	-10.723570	-76.001240	 5.738327	-6.073684	-93.258470	 6.687962	-2.299030	-37.906130	 71.709580	 48.109740	-48.202210	-0.764620	 0.050332	-7.535149	 2.409762	-0.519579	-24.331410
